<svg xmlns="http://www.w3.org/2000/svg" width="70" height="70" viewBox="0 0 70 70">
  <path id="Path_17" data-name="Path 17" d="M42.321,40.866a1.043,1.043,0,0,1,.645-1.321A35.1,35.1,0,0,1,86.86,60.88a1.04,1.04,0,0,1-.645,1.354l-.354.032a1.034,1.034,0,0,1-1-.677,32.81,32.81,0,0,0-41.22-20.014A1.029,1.029,0,0,1,42.321,40.866ZM86.216,83.343a1.077,1.077,0,0,0-1.354.612,32.92,32.92,0,0,1-30.907,21.69A31.983,31.983,0,0,1,43.642,104a1.071,1.071,0,0,0-.677,2.03,34.991,34.991,0,0,0,43.9-21.3A1.075,1.075,0,0,0,86.216,83.343ZM88.955,72.8a1.049,1.049,0,0,1-.612.935l-54.176,27.04a1.352,1.352,0,0,1-.483.129,1,1,0,0,1-.709-.29,1.12,1.12,0,0,1-.29-1.16L39.356,81.8H20.985a1.123,1.123,0,0,1-1.063-.773,35.41,35.41,0,0,1,0-16.436,1.075,1.075,0,0,1,1.063-.806h18.37L32.684,46.119a1.191,1.191,0,0,1,.29-1.192,1.211,1.211,0,0,1,1.192-.129l54.176,27.04A1.027,1.027,0,0,1,88.955,72.8Zm-3.448,0L35.649,47.892l6.22,16.565a1.121,1.121,0,0,1-.1.967,1.163,1.163,0,0,1-.9.483H21.823a32.983,32.983,0,0,0-.741,6.9,33.689,33.689,0,0,0,.741,6.9H40.87a1.1,1.1,0,0,1,.9.419,1.144,1.144,0,0,1,.1.967l-6.22,16.6Z" transform="translate(-37.804 88.955) rotate(-90)" fill="#fff"/>
</svg>
