<svg xmlns="http://www.w3.org/2000/svg" width="70" height="70" viewBox="0 0 70 70">
  <path id="Path_18" data-name="Path 18" d="M32.073,101.342a5.436,5.436,0,1,0,5.419-5.414A5.456,5.456,0,0,0,32.073,101.342Zm8.742,0a3.306,3.306,0,1,1-6.613,0,3.307,3.307,0,0,1,6.613,0Zm-25.935,5.447a5.43,5.43,0,1,0-5.419-5.447A5.435,5.435,0,0,0,14.879,106.789Zm0-8.7a3.275,3.275,0,0,1,3.29,3.255,3.29,3.29,0,1,1-6.581,0A3.275,3.275,0,0,1,14.879,98.087Zm45.258,8.7a5.43,5.43,0,1,0-5.419-5.447A5.435,5.435,0,0,0,60.137,106.789Zm0-8.7a3.275,3.275,0,0,1,3.29,3.255,3.307,3.307,0,1,1-3.29-3.255Zm6.419,10.506H53.879a6.025,6.025,0,0,0-4.968,2.611,6.025,6.025,0,0,0-4.968-2.611H31.234a6.07,6.07,0,0,0-4.968,2.611,6.025,6.025,0,0,0-4.968-2.611H8.621a6.041,6.041,0,0,0-6.032,6.027V125.8a1.074,1.074,0,0,0,1.065,1.064h67.9a1.046,1.046,0,0,0,1.032-1.064V114.62A6.041,6.041,0,0,0,66.557,108.594Zm-45.258,5.8a1.1,1.1,0,0,0-1.065,1.1v9.249H9.686V115.49a1.065,1.065,0,1,0-2.129,0v9.249H4.718V114.62a3.922,3.922,0,0,1,3.9-3.932H21.3a3.949,3.949,0,0,1,3.935,3.932v10.12H22.363V115.49A1.08,1.08,0,0,0,21.3,114.395Zm22.645,0a1.08,1.08,0,0,0-1.065,1.1v9.249H32.331V115.49a1.108,1.108,0,0,0-1.1-1.1,1.074,1.074,0,0,0-1.032,1.1v9.249H27.331V114.62a3.943,3.943,0,0,1,3.9-3.932h12.71a3.922,3.922,0,0,1,3.9,3.932v10.12H44.976V115.49A1.075,1.075,0,0,0,43.944,114.395ZM70.46,124.74H67.621V115.49a1.065,1.065,0,1,0-2.129,0v9.249H54.944V115.49a1.065,1.065,0,1,0-2.129,0v9.249H49.976V114.62a3.922,3.922,0,0,1,3.9-3.932H66.557a3.922,3.922,0,0,1,3.9,3.932ZM37.428,67.986a5.559,5.559,0,1,0-5.548-5.543A5.546,5.546,0,0,0,37.428,67.986Zm0-8.96a3.416,3.416,0,1,1-3.419,3.416A3.42,3.42,0,0,1,37.428,59.026ZM20.621,87.645H23.17v13.149a1.065,1.065,0,1,0,2.129,0V87.645H49.718v13.149a1.08,1.08,0,0,0,1.065,1.1,1.1,1.1,0,0,0,1.065-1.1V87.645h2.742a1.026,1.026,0,0,0,1.065-1.031,1.053,1.053,0,0,0-1.065-1.063H50.234V76.107a6.22,6.22,0,0,0-6.194-6.22H30.976a6.22,6.22,0,0,0-6.194,6.22V85.55H20.621a1.053,1.053,0,0,0-1.065,1.063A1.026,1.026,0,0,0,20.621,87.645Zm6.29-11.538a4.066,4.066,0,0,1,4.065-4.061h5.548V83.552a1.06,1.06,0,0,0,1.065,1.1,1.081,1.081,0,0,0,1.065-1.1V72.047h5.387a4.094,4.094,0,0,1,4.1,4.061V85.55H45.105V76.978a1.065,1.065,0,0,0-2.129,0V85.55H32.041V76.978a1.065,1.065,0,0,0-2.129,0V85.55h-3Z" transform="translate(-2.589 -56.867)" fill="#fff"/>
</svg>
