<?xml version="1.0" encoding="utf-8"?>
<!-- Generator: Adobe Illustrator 25.1.0, SVG Export Plug-In . SVG Version: 6.00 Build 0)  -->
<svg version="1.1" id="Слой_1" xmlns="http://www.w3.org/2000/svg" xmlns:xlink="http://www.w3.org/1999/xlink" x="0px" y="0px"
	 viewBox="0 0 1080 1080" style="enable-background:new 0 0 1080 1080;" xml:space="preserve">
<style type="text/css">
	.st0{fill:#FFFFFF;}
</style>
<g>
	<g>
		<path class="st0" d="M856.99,754.78l9.35-15.12l15.96,9.87l8.55-13.83l-15.96-9.87l9.35-15.12l45.24,27.97l-9.35,15.12
			l-16.22-10.03l-8.55,13.83l16.22,10.03l-9.35,15.12L856.99,754.78z"/>
		<path class="st0" d="M783.47,833.42l12.85-12.29l10.4,10.87l4.45-4.25c2.56-2.45,5.17-4.4,7.82-5.84
			c2.65-1.45,5.26-2.32,7.85-2.62c2.59-0.3,5.1-0.02,7.53,0.84c2.44,0.86,4.72,2.41,6.85,4.64l0.11,0.11
			c2.17,2.27,3.66,4.68,4.49,7.22c0.82,2.54,1.03,5.15,0.63,7.81c-0.4,2.66-1.38,5.32-2.95,7.97c-1.56,2.65-3.64,5.22-6.24,7.71
			l-17.03,16.28L783.47,833.42z M826.93,846.21c1.65-1.58,2.64-3.19,2.98-4.85c0.34-1.66-0.12-3.14-1.38-4.46l-0.1-0.11
			c-1.3-1.35-2.73-1.9-4.29-1.63s-3.21,1.23-4.93,2.87l-3.52,3.36l7.77,8.13L826.93,846.21z M820.54,797.97l12.85-12.29l36.76,38.44
			l-12.85,12.29L820.54,797.97z"/>
		<path class="st0" d="M758.35,913.92c-3.23,1.81-6.61,2.95-10.15,3.42c-3.54,0.47-7.01,0.27-10.41-0.62
			c-3.4-0.89-6.58-2.44-9.54-4.68c-2.96-2.23-5.44-5.14-7.45-8.72l-0.08-0.13c-1.93-3.45-3.09-7.01-3.49-10.67
			c-0.4-3.67-0.09-7.21,0.93-10.63c1.02-3.41,2.69-6.57,5.02-9.47c2.32-2.9,5.21-5.31,8.66-7.24c2.56-1.43,5.08-2.45,7.56-3.06
			c2.48-0.61,4.89-0.87,7.23-0.78c2.34,0.08,4.6,0.49,6.78,1.21c2.18,0.73,4.25,1.7,6.21,2.92l-8.6,14.66
			c-1.82-1.18-3.68-1.93-5.56-2.24c-1.88-0.31-3.89,0.13-6.01,1.32c-1.33,0.74-2.37,1.68-3.13,2.8c-0.76,1.12-1.26,2.36-1.49,3.71
			c-0.23,1.35-0.21,2.76,0.06,4.23c0.27,1.47,0.8,2.89,1.56,4.26l0.07,0.13c0.84,1.5,1.82,2.77,2.95,3.79
			c1.12,1.03,2.33,1.77,3.61,2.25c1.28,0.48,2.6,0.67,3.94,0.58c1.35-0.08,2.66-0.49,3.94-1.21c2.21-1.24,3.67-2.77,4.39-4.59
			c0.72-1.82,1.08-3.87,1.09-6.14l16.84,0.06c-0.01,2.27-0.25,4.54-0.72,6.8c-0.47,2.27-1.29,4.46-2.45,6.6
			c-1.16,2.13-2.69,4.16-4.6,6.1C763.61,910.54,761.22,912.31,758.35,913.92z"/>
		<path class="st0" d="M691.17,944.97l-19.03,5.31l-18.38-25.17l-2.77,31.07l-18.66,5.21l6.98-57.56l16.1-4.49L691.17,944.97z"/>
		<path class="st0" d="M557.9,971.23c-4.1,0.17-7.94-0.38-11.52-1.64c-3.58-1.27-6.72-3.09-9.43-5.46
			c-2.71-2.37-4.87-5.21-6.48-8.51c-1.61-3.3-2.5-6.88-2.66-10.73l-0.01-0.15c-0.16-3.85,0.43-7.48,1.78-10.92
			c1.35-3.43,3.28-6.45,5.78-9.06c2.5-2.62,5.49-4.72,8.98-6.31c3.48-1.59,7.27-2.48,11.37-2.65c4.1-0.17,7.94,0.38,11.52,1.65
			c3.58,1.27,6.72,3.09,9.43,5.46c2.71,2.37,4.87,5.21,6.48,8.51c1.61,3.3,2.5,6.88,2.66,10.72l0.01,0.15
			c0.16,3.85-0.43,7.48-1.79,10.91c-1.35,3.43-3.28,6.45-5.78,9.07c-2.5,2.61-5.49,4.72-8.98,6.31S562,971.05,557.9,971.23z
			 M557.39,955.5c1.67-0.07,3.18-0.46,4.51-1.18c1.34-0.72,2.47-1.64,3.38-2.77c0.92-1.13,1.6-2.41,2.04-3.85
			c0.45-1.44,0.64-2.94,0.57-4.51l-0.01-0.15c-0.07-1.57-0.4-3.06-0.99-4.48c-0.59-1.42-1.39-2.66-2.4-3.74
			c-1.01-1.07-2.21-1.91-3.6-2.51c-1.4-0.6-2.95-0.86-4.67-0.79c-1.67,0.07-3.18,0.46-4.52,1.18c-1.34,0.72-2.46,1.64-3.38,2.77
			c-0.92,1.13-1.6,2.41-2.04,3.85c-0.45,1.44-0.64,2.94-0.57,4.51l0.01,0.15c0.07,1.57,0.39,3.06,0.99,4.48
			c0.59,1.42,1.39,2.67,2.4,3.74c1.01,1.07,2.21,1.91,3.6,2.51C554.11,955.31,555.67,955.58,557.39,955.5z"/>
		<path class="st0" d="M443.56,905.93l43.87,8.44l-2.7,14.03l-26.86-5.17l-1.01,5.22l10.67,2.05c6.72,1.29,11.49,3.64,14.31,7.05
			c2.83,3.41,3.77,7.55,2.83,12.42l-0.03,0.15c-0.49,2.54-1.36,4.78-2.61,6.73c-1.25,1.95-2.91,3.52-4.96,4.69
			c-2.06,1.18-4.52,1.93-7.4,2.25c-2.87,0.33-6.18,0.13-9.91-0.59l-26.26-5.05L443.56,905.93z M460.64,949.92
			c2.09,0.4,3.65,0.33,4.69-0.22c1.03-0.55,1.66-1.4,1.88-2.54l0.03-0.15c0.22-1.14-0.07-2.13-0.86-2.95
			c-0.8-0.82-2.31-1.45-4.55-1.88l-7.31-1.41l-1.48,7.69L460.64,949.92z"/>
		<path class="st0" d="M312.07,907.5l13.75-21.96l-30.82,11.27l-12.94-8.11l28.23-45.08l15.07,9.44l-13.15,20.99l29.5-10.75
			l13.65,8.55l-28.23,45.08L312.07,907.5z M334.43,855.34c-3.73-2.34-6.21-5.02-7.42-8.05c-1.21-3.03-1.05-6.39,0.49-10.09
			l8.05,5.04c-0.15,1.1,0.03,2.14,0.55,3.12c0.52,0.98,1.47,1.91,2.84,2.77c1.37,0.86,2.6,1.3,3.69,1.33
			c1.09,0.03,2.12-0.26,3.08-0.85l7.99,5c-2.61,3.03-5.55,4.66-8.8,4.89C341.66,858.73,338.17,857.68,334.43,855.34z"/>
		<path class="st0" d="M254.99,793.2l12.32,12.61l-22.65,53.47l-13.49-13.81l3.14-7l-13.01-13.32l-7.02,3.04L201,814.6L254.99,793.2
			z M240.25,826.51l5.84-12.5l-12.64,5.55L240.25,826.51z"/>
		<path class="st0" d="M194.34,709.39l23.08,38.26l-12.23,7.38l-14.13-23.42l-4.55,2.75l5.61,9.31c3.53,5.86,4.98,10.97,4.34,15.35
			c-0.64,4.38-3.09,7.85-7.34,10.42l-0.13,0.08c-2.21,1.33-4.46,2.19-6.75,2.56c-2.29,0.38-4.56,0.19-6.81-0.55
			c-2.25-0.74-4.46-2.07-6.62-3.99c-2.16-1.92-4.23-4.5-6.19-7.76l-13.82-22.9L194.34,709.39z M173.07,751.5
			c1.1,1.82,2.2,2.93,3.3,3.34c1.1,0.4,2.15,0.3,3.15-0.3l0.13-0.08c1-0.6,1.54-1.47,1.62-2.62c0.08-1.14-0.47-2.69-1.65-4.64
			l-3.85-6.37l-6.7,4.04L173.07,751.5z"/>
	</g>
	<g>
		<path class="st0" d="M232.51,243.52c0.29-1.78,0.69-3.56,1.23-5.33c0.53-1.77,1.24-3.54,2.14-5.29c0.89-1.76,1.99-3.52,3.29-5.28
			c1.3-1.76,2.9-3.52,4.79-5.28c3.12-2.89,6.44-5,9.94-6.32c3.51-1.32,7.02-1.91,10.53-1.78c3.51,0.13,6.9,0.98,10.17,2.54
			c3.28,1.56,6.24,3.77,8.89,6.63l0.1,0.11c2.55,2.75,4.5,5.77,5.87,9.07c1.36,3.3,2.02,6.69,1.98,10.18
			c-0.04,3.49-0.83,6.95-2.35,10.37c-1.53,3.42-3.91,6.63-7.14,9.62c-3.12,2.89-6.41,4.99-9.86,6.29c-3.45,1.3-6.93,1.82-10.43,1.54
			c-3.5-0.28-6.95-1.31-10.34-3.11c-3.39-1.79-6.58-4.31-9.58-7.54c-0.28-0.3-0.68-0.75-1.21-1.36c-0.53-0.61-0.93-1.14-1.2-1.58
			l27.69-25.67c-2-1.04-4.14-1.43-6.41-1.16c-2.27,0.27-4.52,1.44-6.75,3.51c-2.16,2-3.7,4.11-4.65,6.33
			c-0.94,2.22-1.62,4.53-2.04,6.91L232.51,243.52z M272.44,252.39c1.97-1.82,3.14-3.84,3.51-6.05c0.37-2.21-0.01-4.44-1.14-6.71
			l-15.16,14.05c1.7,1.32,3.72,1.94,6.03,1.87C268,255.48,270.25,254.43,272.44,252.39z"/>
		<path class="st0" d="M304.14,176.24l20.76-11.9c3.08-1.76,6.07-3.03,8.99-3.8c2.92-0.77,5.67-0.98,8.25-0.66
			c2.58,0.33,4.97,1.24,7.17,2.72c2.2,1.49,4.08,3.59,5.64,6.32l0.08,0.13c1.59,2.77,2.49,5.51,2.7,8.22
			c0.21,2.71-0.19,5.32-1.21,7.83c-1.01,2.51-2.6,4.86-4.75,7.06c-2.15,2.2-4.79,4.19-7.91,5.98l-5.01,2.87l7.18,12.53l-15.42,8.84
			L304.14,176.24z M336.68,187.62c1.98-1.13,3.33-2.47,4.05-4.02c0.72-1.54,0.61-3.14-0.35-4.8l-0.08-0.13
			c-0.95-1.66-2.24-2.59-3.87-2.78c-1.63-0.2-3.48,0.3-5.55,1.48l-4.22,2.42l5.86,10.22L336.68,187.62z"/>
		<path class="st0" d="M447.63,116.52l17.57-2.72l3.19,20.57l11.83-22.9l20.42-3.16l-16.32,28.67l10.9,10.31l12.24-1.9l4.23,27.33
			l-16.15,2.5l-1.86-12.01l-5.56,0.86l-17.91-17.83l3.12,20.12l-17.57,2.72L447.63,116.52z"/>
		<path class="st0" d="M566.27,107.73l17.57,1.44l17.98,55.22l-19.24-1.57l-2.22-7.35l-18.55-1.52l-3.31,6.9l-18.93-1.55
			L566.27,107.73z M577,142.53l-3.79-13.27l-5.9,12.48L577,142.53z"/>
		<path class="st0" d="M646.12,125.6c3.55-0.78,7.44-1.17,11.67-1.17c4.23,0,9.02,0.86,14.37,2.57c3.62,1.16,6.7,2.53,9.25,4.12
			s4.55,3.31,6.01,5.16c1.46,1.85,2.37,3.79,2.76,5.83c0.39,2.04,0.24,4.1-0.42,6.17l-0.05,0.14c-0.88,2.75-2.28,4.82-4.18,6.2
			c-1.91,1.38-4.63,2.22-8.19,2.52c2.71,1.99,4.68,4.12,5.89,6.4c1.21,2.28,1.29,5.06,0.24,8.33l-0.05,0.15
			c-0.66,2.08-1.79,3.87-3.36,5.39c-1.58,1.52-3.59,2.65-6.04,3.41c-2.45,0.76-5.32,1.06-8.59,0.92c-3.28-0.15-6.94-0.87-10.99-2.17
			c-5.21-1.67-9.53-3.68-12.95-6.03c-3.43-2.35-6.35-4.97-8.77-7.88l10.77-10.19c2.24,2.47,4.61,4.58,7.11,6.31
			c2.5,1.73,5.1,3.03,7.8,3.9c2.6,0.83,4.6,1.1,5.97,0.8c1.37-0.3,2.22-0.96,2.55-1.98l0.05-0.15c0.33-1.01,0.12-1.98-0.62-2.91
			c-0.74-0.93-2.34-1.79-4.8-2.58l-11.43-3.66l3.67-11.43l11.29,3.62c2.02,0.65,3.61,0.82,4.74,0.52c1.13-0.3,1.86-0.93,2.16-1.9
			l0.05-0.15c0.32-1.01,0.05-2-0.8-2.97c-0.86-0.97-2.35-1.79-4.47-2.47c-2.85-0.91-5.9-1.4-9.15-1.46c-3.25-0.06-6.2,0.21-8.84,0.8
			L646.12,125.6z"/>
		<path class="st0" d="M754.12,163.83l15.14,9.03l-8.18,57.49l-16.58-9.88l1.24-7.57l-15.99-9.53l-6.01,4.73l-16.32-9.73
			L754.12,163.83z M748.42,199.8l2.44-13.59l-10.79,8.61L748.42,199.8z"/>
		<path class="st0" d="M823.88,212.74l12.71,12.44l-14.57,14.88l25.43-4.25l14.77,14.46l-32.73,4.11l-1.72,14.9l8.85,8.66
			l-19.35,19.77l-11.68-11.43l8.5-8.69l-4.02-3.93l3.55-25.02l-14.24,14.55l-12.71-12.44L823.88,212.74z"/>
	</g>
	<g>
		<path class="st0" d="M579.63,633.77c-0.35,0.75-0.56,1.62-1.08,2.23c-6.02,7.1-12.5,13.68-20.25,18.99
			c-3.49,2.39-7.01,4.73-10.75,6.64c-6.21,3.17-12.6,5.97-19.44,7.6c-3.61,0.86-7.19,1.88-10.81,2.72c-1.54,0.36-3.16,0.41-4.74,0.6
			c-6.43,0.77-12.9,0.92-19.33,0.52c-9.06-0.57-17.99-2.2-26.57-5.16c-7.58-2.62-14.89-5.94-21.72-10.21
			c-0.32-0.2-0.64-0.38-0.97-0.58c-3.74,1.2-7.45,2.4-11.17,3.59c-3.6,1.15-7.2,2.29-11.16,3.54c0.95-1.03,3-1.96,4.58-2.49
			c1.68-0.56,3.32-1.23,4.93-1.94c1.63-0.72,3.21-1.55,4.82-2.31c1.56-0.74,3.13-1.47,4.85-2.28c-4.49-3.65-8.71-7.07-13.15-10.67
			c-4.74,2.7-9.73,5.43-14.61,8.35c-7.37,4.41-14.69,8.91-21.65,13.96c-4.62,3.35-9.13,6.84-13.65,10.32
			c-6.23,4.81-11.97,10.16-17.47,15.79c-3.36,3.44-6.49,7.07-9.34,10.95c-2.49,3.39-5.27,6.59-7.61,10.08
			c-2.16,3.24-4.48,6.41-5.96,10.08c-0.71,1.75-1.82,3.33-2.81,5.1c-0.68-0.31-0.56-0.87-0.25-1.49c1.65-3.32,3.12-6.73,4.98-9.93
			c2.53-4.34,4.87-8.79,7.86-12.86c2.99-4.07,5.81-8.27,9.25-12.01c3.05-3.31,5.9-6.8,9.04-10.03c2.84-2.92,5.9-5.64,8.94-8.36
			c2.03-1.82,4.17-3.53,6.29-5.24c2.63-2.11,5.25-4.25,7.97-6.23c4.45-3.25,8.96-6.42,13.49-9.55c4.3-2.96,8.68-5.78,13.21-8.39
			c2.58-1.49,4.98-3.29,7.65-5.08c-0.88-2.4-3.52-3.42-4.5-5.67c-1.9-0.56-3.33,0.72-4.77,1.35c-7.78,3.39-15.92,5.66-23.99,8.17
			c-2.17,0.68-4.48,0.91-6.77,1.09c5.57-1.85,11.24-3.47,16.7-5.6c5.54-2.17,11.12-4.36,16.26-7.65
			c-8.53-10.98-15.21-23.1-21.13-35.64c-2.7-5.72-5.04-11.62-7.56-17.43c-1.34-3.08-2.71-6.14-4.12-9.31
			c-3.92-2.75-8.31-4.81-13.11-5.75c-3.38-0.66-6.76-0.96-10.33-0.47c-3.84,0.53-6.92,2.57-10.4,3.74c-3.33,2.85-6.5,5.86-8.26,9.98
			c-1.78,4.15-2.33,8.54-1.77,12.99c0.57,4.53,2.41,8.6,5.16,12.24c3.8,5.03,8.84,8.22,14.92,9.71c3.59,0.88,7.15,0.88,10.62-0.85
			c4.85-2.42,7.38-7.87,5.95-13.17c-0.09-0.34-0.01-0.73-0.01-1.23c3.58,2.38,4.86,5.88,4.99,9.71c0.24,7.2-2.73,12.93-8.65,17.07
			c-4.89,3.41-10.34,5.15-16.29,5.31c-1.62,0.04-3.24,0-4.86,0c-4.28,0.02-8.36-1.08-12.28-2.6c-7.55-2.92-13.94-7.59-19-13.88
			c-4.19-5.21-7.08-11.14-8.67-17.72c-1.28-5.33-1.37-10.71-0.97-16.07c0.3-3.98,1.35-7.9,2.8-11.63c2.47-6.37,6.02-12.14,11-16.86
			c4.88-4.62,10.52-8.21,16.87-10.44c6.66-2.34,13.61-2.89,20.63-2.31c1.75,0.14,3.46,0.69,5.2,1.03c0.35,0.07,0.72,0.01,1.47,0.01
			c-3.98-7.27-8.38-13.83-13.44-19.97c-5.04-6.13-10.48-11.86-16.91-16.63c0.1-0.15,0.2-0.31,0.3-0.46c0.96,0.17,1.97,0.2,2.87,0.55
			c5.39,2.08,10.72,4.31,15.66,7.33c2.72,1.66,5.43,3.34,8,5.22c2.89,2.11,5.74,4.3,8.37,6.72c3.44,3.16,6.84,6.4,9.89,9.92
			c3.56,4.12,7.06,8.3,10.26,12.73c4.07,5.64,8.05,11.34,11.78,17.2c4.33,6.79,8.51,13.68,12.7,20.56
			c5.82,9.54,11.85,18.94,18.67,27.81c1.67,2.17,3.55,4.19,5.43,6.39c2.65-1.51,4.86-3.4,7.12-5.21
			c7.01-5.6,13.85-11.39,20.16-17.79c3.4-3.45,7.04-6.66,10.45-10.09c3.41-3.43,6.72-6.98,10-10.54c3.79-4.11,7.52-8.27,11.27-12.42
			c1.4-1.55,2.77-3.11,4.13-4.69c0.23-0.27,0.33-0.65,0.6-1.2c-1.13-0.84-2.22-1.64-3.41-2.52c-1.25,1.36-2.42,2.56-3.51,3.83
			c-5.51,6.43-11.65,12.2-18.15,17.63c-3.19,2.66-6.48,5.14-9.91,7.45c-0.52,0.35-1.19,0.47-1.79,0.7
			c-0.08-0.07-0.15-0.14-0.22-0.22c2.33-2.2,4.71-4.36,6.99-6.62c1.48-1.46,2.83-3.04,4.21-4.59c3.66-4.08,7.38-8.12,10.95-12.29
			c2.08-2.42,3.95-5.02,5.87-7.58c0.38-0.5,0.57-1.14,0.87-1.77c-0.78-1.46-2.18-1.99-3.61-2.85c-1.43,1.45-2.82,2.84-4.2,4.25
			c-5.36,5.45-11.67,9.36-18.99,11.63c-2.5,0.78-5.04,1.35-7.64,1.61c-1.67,0.17-3.35,0.51-5.01,0.45
			c-7.67-0.3-14.89-2.21-21.4-6.44c-0.53-0.35-1.14-0.58-1.71-0.87c-0.09-0.15-0.18-0.31-0.05-0.09c-0.23-0.1-0.07-0.03,0.09,0.04
			c0.23,1.07,0.28,2.22,0.7,3.21c2.95,6.91,5.84,13.86,10.07,20.14c0.35,0.52,0.48,1.2,0.71,1.8l-0.16,0.15
			c-0.75-0.36-1.61-0.59-2.23-1.11c-7.1-6.02-13.65-12.51-18.97-20.26c-3.04-4.42-5.77-8.97-8.15-13.74
			c-3.08-6.17-5.39-12.69-7.03-19.36c-1.24-5.07-2.04-10.25-2.57-15.49c-0.57-5.61-0.61-11.2-0.27-16.76
			c0.42-7.08,1.67-14.08,3.56-20.95c1.54-5.58,3.54-10.98,6.04-16.19c1.94-4.03,4.1-7.96,6.25-12.1
			c-2.47-7.23-4.94-14.69-6.65-22.38c2.8,6.54,5.59,13.08,8.43,19.72c3.65-4.48,7.18-8.81,10.84-13.3
			c-2.69-4.75-5.35-9.69-8.24-14.48c-3.63-6.01-7.33-11.99-11.24-17.83c-3.24-4.84-6.8-9.46-10.26-14.15
			c-5.88-7.95-12.58-15.17-19.74-21.97c-5.28-5.01-10.87-9.64-16.85-13.81c-3.3-2.3-6.53-4.71-10.16-6.52
			c-0.16-0.08-0.16-0.46-0.31-0.98c0.53,0.13,0.88,0.16,1.17,0.3c7.92,3.93,15.23,8.79,22.29,14.13
			c8.38,6.35,15.62,13.87,22.81,21.43c3.3,3.47,6.09,7.44,9.12,11.17c4.98,6.13,9.51,12.59,13.86,19.17
			c3.98,6.01,7.72,12.18,11.58,18.27c0.09,0.14,0.28,0.22,0.43,0.34c1.69-0.64,3.05-1.82,5.99-5.22
			c-4.62-10.66-8.34-21.7-10.95-33.1c-0.12-0.53-0.02-1.1,0.12-1.68c3.12,11.5,7.37,22.53,13.04,33.22
			c2.09-1.49,4.05-2.87,5.99-4.27c9.85-7.08,20.56-12.65,31.54-17.69c7.53-3.45,15.21-6.56,22.82-9.84c0.77-0.33,1.51-0.74,2.3-1.14
			c2.49-3.93,4.45-8.07,5.55-12.69c1.84-7.73,1.01-14.96-3.67-21.41c-4.42-6.09-10.39-9.55-18.14-9.85
			c-7.07-0.27-13.15,2.12-18.27,6.68c-4.64,4.13-7.5,9.4-8.32,15.73c-0.49,3.8,0.14,7.16,2.36,10.26c2.64,3.7,7.42,5.38,11.92,4.12
			c0.34-0.1,0.74-0.01,1.24-0.01c-2.23,3.54-5.65,4.78-9.31,4.96c-7.17,0.36-12.93-2.49-17.22-8.35c-3.72-5.08-5.32-10.74-5.56-17
			c-0.27-6.82,0.99-13.28,3.73-19.44c1.64-3.69,3.89-7.07,6.55-10.13c4.52-5.18,9.79-9.4,16.14-12.15c3.68-1.6,7.47-2.75,11.49-3.32
			c3.22-0.46,6.41-0.44,9.62-0.43c5.21,0.02,10.14,1.41,14.98,3.2c5.72,2.11,10.74,5.42,15.13,9.56c4.62,4.36,8.07,9.64,10.57,15.51
			c1.68,3.97,2.86,8.14,3.28,12.37c0.41,4.11,0.61,8.32-0.33,12.47c-0.34,1.51-0.41,3.09-0.65,5.09
			c14.58-8.33,27.39-18.07,37.68-31.83c-0.12,0.95-0.1,1.27-0.2,1.55c-0.61,1.65-1.33,3.27-1.85,4.95
			c-2.13,6.84-5.81,12.92-9.56,18.93c-1.93,3.1-4.35,5.94-6.79,8.67c-3.55,3.96-7.2,7.84-11.04,11.52c-2.85,2.73-6.05,5.11-9.1,7.62
			c-6.32,5.21-13.15,9.71-20.01,14.16c-5.73,3.72-11.54,7.33-17.38,10.89c-9.04,5.51-18.13,10.94-26.7,17.17
			c-3.5,2.55-6.86,5.3-10.26,7.97c-0.72,0.57-1.39,1.21-2.02,1.77c0,0.28-0.08,0.53,0.01,0.65c2.36,3.06,4.7,6.14,7.14,9.14
			c2.8,3.44,5.7,6.8,8.56,10.19c0.18,0.22,0.39,0.42,0.59,0.62c6.3,6.48,12.51,13.06,18.94,19.41c5.06,5,10.38,9.75,15.64,14.55
			c3.14,2.88,6.37,5.66,9.58,8.47c0.33,0.29,0.76,0.47,1.37,0.84c0.87-1.18,1.68-2.27,2.55-3.45c-1.35-1.24-2.61-2.36-3.82-3.52
			c-4.19-4.01-8.55-7.86-12.48-12.11c-4.6-4.97-8.94-10.2-12.61-15.93c-0.34-0.53-0.47-1.2-0.69-1.8c0.07-0.08,0.14-0.15,0.21-0.21
			c2.2,2.33,4.36,4.72,6.62,6.99c4.75,4.76,9.7,9.28,14.97,13.45c3.68,2.92,7.35,5.87,11.21,8.95c0.56-0.77,1.02-1.43,1.5-2.07
			c0.44-0.59,0.89-1.16,1.42-1.85c-0.53-0.62-0.9-1.15-1.37-1.57c-3.46-3.12-6.66-6.48-9.2-10.39c-2.4-3.68-4.36-7.6-5.54-11.85
			c-1.13-4.05-2.05-8.18-1.87-12.42c0.34-7.58,2.23-14.71,6.4-21.15c0.25-0.39,0.49-0.8,0.71-1.22c0.07-0.13,0.05-0.3,0.12-0.79
			c-1.26,0.43-2.38,0.77-3.47,1.19c-7.33,2.82-14.29,6.39-21,10.46c-0.15,0.09-0.37,0.05-0.56,0.07l-0.1-0.1
			c0.42-0.82,0.71-1.74,1.28-2.43c4.11-4.99,8.45-9.78,13.56-13.77c3.41-2.66,6.82-5.35,10.44-7.72
			c6.82-4.45,14.21-7.77,21.93-10.36c5.04-1.69,10.22-2.81,15.4-3.9c2.29-0.48,4.7-0.34,7.02-0.74c4.91-0.85,9.84-0.43,14.76-0.46
			c3.19-0.02,6.34,0.66,9.51,0.96c5.06,0.48,9.94,1.68,14.78,3.05c3.3,0.93,6.52,2.16,9.73,3.36c6.05,2.26,11.71,5.31,17.15,8.64
			c3.81-1.21,7.52-2.39,11.24-3.57c3.66-1.16,7.21-2.67,11.11-3.05c-6.58,2.54-12.92,5.56-19.2,8.49c4.32,3.5,8.64,6.99,13.18,10.65
			c2.44-1.33,5.16-2.74,7.8-4.29c4.6-2.7,9.15-5.48,13.71-8.25c7.95-4.82,15.59-10.06,23.04-15.65
			c9.14-6.86,17.55-14.47,25.36-22.76c4.96-5.27,9.46-10.95,13.48-17c2.93-4.42,5.92-8.8,8.18-13.62c0.14-0.31,0.47-0.53,1.06-1.17
			c-0.22,0.98-0.23,1.54-0.46,1.99c-2.58,5.23-5.13,10.48-8.4,15.33c-2.71,4.01-5.2,8.18-8.16,12.01
			c-2.94,3.81-6.22,7.37-9.54,10.86c-3.81,4-7.73,7.92-11.79,11.67c-3.33,3.07-6.82,5.99-10.43,8.72
			c-6.15,4.64-12.34,9.23-18.71,13.57c-5.88,4.01-12.01,7.66-18.03,11.48c-0.78,0.49-1.51,1.05-2.18,1.51c0,0.34-0.08,0.6,0.01,0.7
			c1.58,1.77,3.17,3.52,4.95,5.48c11.27-4.76,22.74-8.87,34.89-10.79c-1.25,0.42-2.48,0.97-3.76,1.25
			c-6.67,1.46-12.96,3.98-19.13,6.81c-2.97,1.36-5.93,2.76-8.88,4.15c-0.42,0.2-0.79,0.48-1.3,0.8c1.78,2.41,3.58,4.69,5.19,7.09
			c5.93,8.78,11.03,18.04,15.49,27.64c3.89,8.36,7.71,16.75,11.01,25.37c0.3,0.78,0.76,1.51,1.22,2.41
			c3.84,2.57,8.07,4.67,12.81,5.59c3.49,0.68,6.92,1.03,10.57,0.53c7.46-1.03,13-4.75,17.04-10.82c2.2-3.3,3.31-7.03,3.53-11.07
			c0.39-7.16-1.96-13.37-6.58-18.61c-4.11-4.66-9.38-7.46-15.68-8.45c-3.13-0.49-5.85,0.16-8.66,1.23c-4,1.51-7.91,8.86-5.86,13.24
			c0.11,0.23,0.01,0.55,0.01,0.86c-2.35-1.47-3.16-2.43-3.95-4.63c-2.54-7.09-0.67-13.33,4.05-18.77c3.89-4.49,9.18-6.6,14.9-7.85
			c4.15-0.91,8.34-0.76,12.46-0.39c3.11,0.28,6.28,1.09,9.18,2.26c5.59,2.26,10.8,5.21,15.2,9.52c4.3,4.22,7.75,8.95,10.27,14.4
			c1.54,3.33,2.35,6.85,3.15,10.39c0.99,4.41,0.79,8.89,0.47,13.32c-0.3,4.07-1.33,8.1-2.83,11.91
			c-2.46,6.27-5.93,11.98-10.83,16.64c-6.15,5.84-13.38,9.79-21.67,11.87c-5.33,1.33-10.69,1.21-16.07,1.01
			c-1.65-0.06-3.27-0.66-4.92-0.98c-0.43-0.08-0.89-0.01-1.71-0.01c8.04,14.22,17.66,26.69,30.37,36.66
			c-0.11,0.15-0.22,0.29-0.34,0.44c-1.05-0.25-2.13-0.4-3.14-0.76c-7.25-2.55-14.01-6.12-20.46-10.24
			c-3.08-1.97-5.94-4.35-8.68-6.79c-3.83-3.41-7.58-6.92-11.12-10.63c-2.92-3.06-5.5-6.45-8.2-9.72
			c-5.63-6.82-10.43-14.24-15.23-21.65c-3.87-5.98-7.6-12.05-11.26-18.15c-6.23-10.38-12.73-20.59-20.09-30.22
			c-1.49-1.95-3.06-3.83-4.62-5.72c-0.22-0.27-0.57-0.45-0.97-0.75c-2.01,1.5-4.01,2.89-5.9,4.43
			c-6.98,5.68-13.69,11.67-20.33,17.76c-8.05,7.39-15.33,15.5-22.92,23.32c-4.68,4.82-9,10-13.46,15.03
			c-0.35,0.4-0.57,0.92-0.96,1.59c1.22,0.86,2.33,1.64,3.4,2.39c3.91-4.14,7.59-8.21,11.44-12.1c4.66-4.71,9.59-9.11,15.03-12.94
			c2.75-1.94,5.37-4.07,8.06-6.09c0.89-0.67,1.84-1.27,3.05-1.09c0,0-0.07-0.07-0.07-0.07c-1.24,1.12-2.48,2.23-3.72,3.35
			c-3.12,2.81-6.46,5.41-9.32,8.47c-6.18,6.62-12.4,13.23-17.56,20.72c-0.75,1.08-1.61,2.09-2.51,3.25
			c1.11,1.25,2.44,2.14,3.77,2.68c1.67-1.55,3.24-2.93,4.72-4.4c6.08-6.02,13.27-10.13,21.56-12.11c3.25-0.78,6.59-1.46,10.01-1.25
			c7.58,0.45,14.71,2.3,21.15,6.47c0.54,0.35,1.14,0.58,1.72,0.87c0.09,0.15,0.18,0.31,0.05,0.09c0.23,0.1,0.07,0.03-0.09-0.04
			c-0.23-1.07-0.28-2.22-0.7-3.21c-2.95-6.91-5.84-13.86-10.07-20.14c-0.35-0.52-0.48-1.2-0.71-1.8l0.16-0.15
			c0.75,0.36,1.61,0.59,2.23,1.11c7.1,6.02,13.66,12.52,18.97,20.26c3.04,4.42,5.78,8.97,8.15,13.74c3.07,6.18,5.4,12.68,7.03,19.36
			c1.24,5.07,2.04,10.25,2.57,15.48c0.57,5.61,0.58,11.2,0.28,16.76c-0.37,6.99-1.68,13.91-3.45,20.7
			c-1.74,6.69-4.48,13.02-7.38,19.26c-1.45,3.13-3.38,6.03-5.1,9.04c2.46,7.49,5.1,14.89,6.81,22.58
			c-2.69-6.55-5.51-13.01-8.68-19.53c-3.71,4.57-7.14,8.79-10.68,13.15c2.65,4.69,5.24,9.56,8.11,14.26
			c4.05,6.64,8.23,13.21,12.51,19.71c4.3,6.53,9.09,12.69,14.08,18.72c4.62,5.58,9.61,10.77,14.81,15.77
			c5.24,5.04,10.87,9.64,16.84,13.8c3.31,2.3,6.55,4.69,10.15,6.53c0.12,0.06,0.13,0.33,0.28,0.76c-0.48-0.05-0.9,0.01-1.22-0.14
			c-7.87-3.84-15.08-8.69-22.08-13.95c-8.32-6.27-15.47-13.74-22.63-21.21c-3.13-3.27-6-6.82-8.73-10.43
			c-4.65-6.15-9.24-12.35-13.57-18.71c-4-5.88-7.63-12-11.44-18.01c-0.49-0.77-1.07-1.49-1.56-2.17c-0.31,0.02-0.57-0.05-0.68,0.05
			c-1.77,1.58-3.51,3.19-5.25,4.77c2.16,5.96,4.4,11.76,6.36,17.65c1.95,5.85,4.01,11.69,4.28,17.98
			c-1.05-3.78-1.93-7.61-3.19-11.31c-1.29-3.78-2.94-7.44-4.45-11.14c-1.55-3.81-3.28-7.52-5.35-11.23
			c-2.48,1.82-4.76,3.61-7.15,5.23c-8.78,5.94-18.04,11.04-27.66,15.49c-6.08,2.81-12.27,5.39-18.41,8.08
			c-3.07,1.35-6.13,2.71-9.32,4.12c-2.71,3.92-4.69,8.32-5.77,13.1c-1.68,7.48-0.81,14.56,3.74,20.92
			c4.56,6.36,10.68,9.9,18.64,9.98c2.83,0.03,5.58-0.33,8.32-1.17c4.51-1.38,8.13-4.04,11.34-7.33c3.21-3.29,5.11-7.37,6.19-11.78
			c1.08-4.41,0.67-8.62-2.05-12.52c-2.04-2.93-8.36-5.6-11.78-4.08c-0.39,0.17-0.89,0.08-1.62,0.13c4.02-4.75,8.81-5.7,14.42-4.62
			c4.78,0.92,8.59,3.3,11.63,6.92c2.43,2.88,4.01,6.28,5.04,9.92c0.8,2.82,1.15,5.68,1.23,8.62c0.15,5.33-0.53,10.49-2.37,15.5
			c-2.06,5.63-5.14,10.59-9.19,15c-4.27,4.65-9.28,8.26-15.01,10.85c-3.5,1.58-7.21,2.43-10.98,3.14c-3.4,0.64-6.79,0.52-10.19,0.5
			c-5.12-0.03-9.95-1.43-14.7-3.19c-3.52-1.3-6.74-3.19-9.85-5.26c-5.11-3.41-9.14-7.88-12.38-13.05
			c-3.4-5.44-5.48-11.35-6.51-17.73c-0.66-4.09-0.44-8.14-0.35-12.2c0.04-1.74,0.66-3.46,1-5.2c0.07-0.35,0.01-0.72,0.01-1.43
			c-7.48,3.95-14.18,8.52-20.42,13.72c-6.22,5.18-12.15,10.7-17.15,18.02c0.06-0.97,0.01-1.29,0.1-1.56
			c0.64-1.74,1.41-3.44,1.96-5.21c2.1-6.76,5.76-12.74,9.44-18.67c1.93-3.11,4.34-5.95,6.79-8.68c3.55-3.96,7.21-7.84,11.04-11.52
			c2.85-2.74,6.04-5.12,9.1-7.63c6.84-5.61,14.24-10.46,21.67-15.23c6.14-3.95,12.35-7.8,18.62-11.55
			c8.29-4.95,16.41-10.17,24.34-15.67c4.16-2.88,7.97-6.27,12.1-9.57c-0.84-1.22-1.51-2.33-2.31-3.34
			c-2.78-3.46-5.64-6.86-8.42-10.31c-3.64-4.51-7.6-8.73-11.67-12.85c-4.41-4.46-8.65-9.1-13.15-13.47
			c-5.1-4.96-10.39-9.74-15.64-14.55c-3.14-2.88-6.37-5.66-9.58-8.47c-0.33-0.29-0.76-0.48-1.37-0.85
			c-0.87,1.18-1.68,2.27-2.55,3.45c1.35,1.25,2.61,2.36,3.82,3.52c4.19,4.01,8.55,7.86,12.48,12.11c4.59,4.98,8.95,10.2,12.62,15.93
			c0.34,0.53,0.47,1.2,0.69,1.8c-0.07,0.08-0.14,0.15-0.21,0.21c-2.2-2.33-4.35-4.72-6.62-6.99c-4.75-4.75-9.7-9.28-14.97-13.45
			c-3.69-2.92-7.35-5.86-11.21-8.95c-1.01,1.35-1.94,2.57-2.94,3.9c0.54,0.63,0.9,1.17,1.37,1.59c3.45,3.13,6.64,6.49,9.21,10.39
			c2.52,3.83,4.56,7.94,5.7,12.38c0.95,3.69,1.86,7.45,1.72,11.32c-0.27,7.88-2.16,15.3-6.56,21.96c-0.21,0.31-0.38,0.65-0.54,0.99
			c-0.07,0.14-0.06,0.3-0.14,0.75c1.17-0.36,2.23-0.59,3.22-1c6.9-2.84,13.7-5.9,19.99-9.99c0.53-0.35,1.2-0.47,1.81-0.7
			C579.51,633.65,579.63,633.77,579.63,633.77z M502.45,625.42c-2.97,2.1-5.7,4.09-8.49,6c-2.78,1.9-5.63,3.7-8.45,5.55
			c-2.77,1.81-5.85,3.12-8.76,5.35c2.02,0.84,3.69,1.59,5.4,2.24c5.3,2.01,10.67,3.76,16.23,4.91c2.74,0.57,5.4,1.12,8.29,0.28
			c4.48-1.31,8.88-2.78,12.87-5.21c4.9-2.98,8.99-6.73,11.46-12.12c2.6-5.67,2.03-11.02-0.78-16.39c-1.12-2.14-2.93-3.68-4.31-5.57
			c-0.79-1.08-1.7-1.62-2.75-2.09c-2.03,0.8-3.2,2.48-4.67,3.77c-1.42,1.24-2.96,2.38-4.25,3.75c-1.3,1.38-3.27,2.14-4.21,4.31
			c3.59,1.98,7.03,3.88,10.43,5.76C514.45,627.58,508.51,626.58,502.45,625.42z M576.65,455.41c2.52-1.83,4.89-3.68,7.39-5.34
			c5.52-3.68,11.05-7.35,16.93-10.47c0.42-0.22,0.68-0.74,1.08-1.19c-1.01-0.39-1.79-0.67-2.56-1c-3.75-1.63-7.62-2.87-11.52-4.1
			c-3.47-1.09-7.03-1.72-10.54-2.62c-1.05-0.27-2.29-0.17-3.37,0.09c-4.06,1-8.05,2.18-11.84,4.08c-4.89,2.45-9.13,5.6-12.25,10.12
			c-4.59,6.66-4.93,13.47-0.79,20.51c1.08,1.84,2.72,3.15,3.88,4.85c0.75,1.11,1.67,1.67,2.76,2.17c2.03-0.75,3.18-2.45,4.65-3.74
			c1.42-1.24,2.93-2.41,4.26-3.74c1.34-1.35,3.16-2.26,4.19-4.1c-3.34-2.51-6.92-4.24-10.67-5.94
			C564.59,453.23,570.62,454.36,576.65,455.41z M607.19,556.71c0.74,0.99,1.3,1.85,1.96,2.6c2.86,3.28,5.73,6.54,8.64,9.77
			c0.32,0.35,0.91,0.45,1.4,0.68c0.65-1.04,1.18-1.92,1.73-2.78c0.5-0.8,1.07-1.56,1.5-2.39c0.47-0.9,0.77-1.88,1.24-2.77
			c0.42-0.79,0.31-1.99,1.68-2.24c0.18,3.03,0.61,6.05,0.48,9.04c-0.13,3.06-0.81,6.1-1.24,9.07c5.96,7.96,11.3,16.09,16.05,24.61
			c0.09,0.16,0.25,0.29,0.39,0.42c0.06,0.05,0.16,0.08,0.24,0.08c0.09,0,0.19-0.03,0.3-0.05c2.76-6.08,4.94-12.38,6.42-18.9
			c0.77-3.41,1.9-6.75,0.86-10.45c-1.71-6.07-3.88-11.89-7.83-16.85c-2.9-3.66-6.47-6.55-10.92-8.26c-2.92-1.12-5.95-1.36-8.9-0.86
			C615.38,548.41,611.1,551.96,607.19,556.71z M437.62,477.68c-0.84,2.03-1.58,3.7-2.24,5.41c-2.06,5.29-3.58,10.75-4.96,16.25
			c-0.75,2.98-0.91,5.9-0.02,8.83c1.28,4.19,2.68,8.32,4.93,12.13c3.25,5.51,7.52,9.84,13.57,12.24c2.99,1.19,6.07,1.31,9.17,0.82
			c4.96-0.78,8.62-3.91,12.14-7.17c0.64-0.6,1.01-1.49,1.54-2.29c-3.89-4.4-7.61-8.63-11.46-12.99c-2.98,3.15-4.13,7.17-6.27,10.7
			c-1.58-6.27-0.75-12.32,0.45-18.27c-2.04-2.9-4.03-5.64-5.93-8.43c-1.9-2.79-3.72-5.63-5.55-8.47
			C441.18,483.67,439.84,480.6,437.62,477.68z M522.13,512.63c-1.04-1.06-1.85-1.99-2.76-2.8c-2.47-2.2-5.1-4.23-7.45-6.55
			c-13.07-12.86-26.51-25.38-37.8-39.92c-3.52-4.53-6.91-9.15-10.34-13.74c-0.94-1.25-1.84-2.53-2.94-4.05
			c-1.82,1.98-3.93,3.29-4.9,5.58c6.68,11.63,13.56,22.99,21.38,33.76c2.78-0.12,5.39,0.01,7.92,0.9c7.9,2.78,12.9,8.46,15.94,16.05
			c2.04,5.1,3.1,10.39,2.84,16.01c2.75,2.93,5.5,5.88,8.37,8.93C515.71,521.96,518.88,517.35,522.13,512.63z M556.89,568.24
			c1.04,1.06,1.85,1.98,2.76,2.79c2.47,2.2,5.1,4.23,7.45,6.55c13.05,12.87,26.52,25.36,37.8,39.91c3.51,4.53,6.91,9.15,10.34,13.74
			c0.94,1.25,1.83,2.53,2.83,3.92c2.08-1.68,3.91-3.26,5.05-5.4c-6.72-11.65-13.58-23.02-21.42-33.8c-2.76,0.13-5.38-0.01-7.9-0.9
			c-7.91-2.77-12.91-8.45-15.94-16.04c-2.03-5.09-3.13-10.39-2.83-16.01c-2.75-2.94-5.51-5.88-8.38-8.94
			C563.31,558.89,560.14,563.51,556.89,568.24z M567.47,523.1c0.96-1.02,1.68-1.76,2.38-2.53c2.82-3.14,5.54-6.36,8.46-9.4
			c4.59-4.79,9.31-9.45,13.97-14.17c6.92-6.98,14.04-13.75,21.71-19.9c4.11-3.3,8.29-6.49,12.49-9.67c2.45-1.86,5-3.59,7.49-5.36
			c-1.11-2.21-3.04-4.05-5.39-5.17c-11.42,6.76-22.87,13.49-33.56,21.36c0,1.2,0.04,2.24-0.01,3.28c-0.18,4.05-1.62,7.75-3.99,10.88
			c-3.77,4.97-8.73,8.43-14.8,10.27c-4.59,1.39-9.19,2.49-14.09,2.25c-2.96,2.75-5.93,5.5-8.99,8.33
			C557.95,516.57,562.57,519.73,567.47,523.1z M511.56,557.7c-1.37,1.61-2.42,2.93-3.57,4.17c-5.37,5.77-10.7,11.57-16.17,17.23
			c-3.36,3.48-6.95,6.75-10.47,10.08c-2.69,2.54-5.36,5.1-8.15,7.53c-3.84,3.36-7.71,6.68-11.68,9.87
			c-3.95,3.17-8.04,6.16-12.1,9.19c-1.41,1.05-2.92,1.94-4.37,2.9c1.37,2.48,2.83,3.95,5.31,5.34c11.45-6.8,23-13.53,33.62-21.41
			c0-1.05-0.01-1.81,0-2.57c0.04-4.8,1.93-8.95,4.86-12.57c3.63-4.49,8.36-7.47,13.86-9.32c4.58-1.55,9.24-2.41,14.18-2.2
			c2.95-2.73,5.93-5.49,9.02-8.35C521.1,564.28,516.49,561.09,511.56,557.7z M593.09,469.63c10.22-6.12,20.12-12.04,30.19-18.08
			c-4.82-3.74-9.58-7.16-14.88-9.83c-8.59,5.21-16.61,10.84-24.55,17.05C588,461.62,591.25,464.96,593.09,469.63z M485.93,611.23
			c-10.21,6.12-20.11,12.04-30.19,18.08c4.81,3.74,9.58,7.15,14.87,9.83c8.59-5.21,16.61-10.84,24.55-17.05
			C491.02,619.24,487.76,615.91,485.93,611.23z M610.25,594.13c3.1,5.07,6.14,9.96,9.1,14.9c3,5,5.91,10.05,8.98,15.28
			c3.79-4.93,7.2-9.69,9.89-14.99c-5.23-8.54-10.83-16.56-17.04-24.52C618.29,588.87,614.98,592.23,610.25,594.13z M440.97,471.33
			c2.13,4.68,13.87,21.59,17.01,24.51c2.7-3.97,6.14-7.09,10.76-9.13c-3.05-5-6.09-9.9-9.06-14.85c-3-5.01-5.93-10.07-9.01-15.31
			C446.93,461.44,443.53,466.15,440.97,471.33z M539,527.8c-4.09,4.52-8.4,8.65-12.04,13.26c4.45,4.11,8.75,8.07,12.96,11.95
			c2.47-2.54,4.81-4.88,7.06-7.3c1.78-1.91,3.45-3.93,5.12-5.85C547.65,535.76,543.34,531.79,539,527.8z M534.86,558.43
			c-4.54-4.08-8.84-7.94-13.25-11.9c-1.54,2.16-3.37,3.78-4.84,5.97c4.7,3.52,9.17,6.87,13.79,10.34
			C531.94,561.42,533.29,560.03,534.86,558.43z M527.21,518.01c-3.28,4.38-6.67,8.9-10.1,13.48c1.6,1.36,2.62,3.14,4.63,4.01
			c3.89-4.31,7.72-8.55,11.62-12.88c-1.84-1.58-3.53-3.05-5.25-4.5C527.99,518.01,527.74,518.06,527.21,518.01z M561.91,549.38
			c-1.47-1.46-2.81-2.77-4.35-4.3c-4.08,4.52-7.96,8.81-11.94,13.2c1.11,0.9,2.02,1.69,2.98,2.43c0.95,0.72,1.49,2.01,3.16,2.19
			C555.06,558.51,558.42,554.05,561.91,549.38z M557.37,534.3c0.9-1.11,1.71-2.02,2.43-2.99c0.71-0.96,2.03-1.48,2.16-3.14
			c-4.41-3.32-8.88-6.69-13.45-10.13c-1.41,1.44-3.01,2.61-4.12,4.53C548.67,526.44,552.89,530.25,557.37,534.3z M613.59,575.38
			c-3.83-4.24-7.41-8.21-11.26-12.48c-0.77,1.82-1.6,3.18-1.91,4.66c-0.55,2.68-0.74,5.42,0.93,7.88c0.92,1.36,2.06,2.49,3.77,2.7
			C608.25,578.51,610.94,577.44,613.59,575.38z M476.53,517.78c1.87-2.74,2.51-5.44,2.38-8.42c-0.18-4.34-3.34-7.27-7.57-6.62
			c-2.13,0.33-4.25,1.04-5.78,2.88C469.26,509.73,472.84,513.7,476.53,517.78z M516.92,603.43c-3.9-2.21-5.6-2.73-9.12-2.34
			c-2.18,0.24-4.06,1.16-5.17,3.3c-1.63,3.13-0.91,6.89,2.12,9.95C508.71,610.78,512.69,607.22,516.92,603.43z M562.14,477.44
			c3.35,2.31,6.71,2.71,9.85,2.28c3.16-1.04,5.03-2.86,5.25-5.9c0.21-2.81-0.97-5.17-2.81-7.46
			C570.29,470.1,566.32,473.68,562.14,477.44z M536.93,581.78c1.13-1.38,2.24-2.73,3.56-4.34c-3.16-1.54-5.2-4.29-8.4-5.14
			c-1.92,1.86-3.66,3.53-5.25,5.28C530.23,579,533.38,580.31,536.93,581.78z M551.92,502.88c-3.35-0.53-6.33-2.47-9.63-3.8
			c-1.34,1.37-2.83,2.5-3.48,4.59c2.97,1.27,4.93,4.03,7.78,4.82C548.51,506.47,550.17,504.72,551.92,502.88z M507.77,532.94
			c-2.19-1.71-3.51-3.83-5.47-5.03c-1.41,3.38-2.75,6.61-4.15,9.98c1.43,1.15,2.79,2.24,4.32,3.47
			C504.1,538.32,506.6,536.21,507.77,532.94z M576.44,539.37c-1.41,3.3-4.16,5.26-5.1,8.43c0.99,1.01,1.79,1.96,2.71,2.75
			c0.94,0.81,1.53,2.1,3.01,2.48c0.5-3.71,2.69-6.62,3.79-10.05C579.46,541.84,578.16,540.78,576.44,539.37z M511.08,548.2
			c1.36-2.87,4.09-4.17,5.05-6.84c-1.24-1.2-2.39-2.3-3.69-3.55c-1.83,2.55-4.1,4.44-5.27,7.36
			C508.46,546.17,509.63,547.07,511.08,548.2z M571.97,535.74c-1.47-1.11-2.65-1.99-3.89-2.93c-1.88,2.25-3.6,4.33-5.38,6.47
			c1.42,1.3,2.39,2.71,3.95,3.55C568.62,540.67,570.42,538.53,571.97,535.74z M537.91,516.93c1.53-1.35,2.73-2.41,4.08-3.6
			c-2.25-1.93-4.37-3.85-7-5.27c-1.24,1.31-2.54,2.25-2.85,3.86C534.18,513.7,536.16,515.42,537.91,516.93z M543.88,572.96
			c1.41-1.49,2.7-2.46,3.04-4.15c-2.48-1.32-3.77-4.06-5.76-4.77c-1.58,1.3-2.82,2.31-4.25,3.49
			C539.27,569.38,541.47,571.09,543.88,572.96z"/>
		<path class="st0" d="M496.56,465.51c1.25,1.1,2.26,2.38,2.98,3.89c-0.08,0.07-0.15,0.14-0.21,0.21c-1.88-0.76-2.67-2.22-2.7-4.18
			L496.56,465.51z"/>
		<path class="st0" d="M582.46,615.36c-1.25-1.1-2.26-2.38-2.98-3.89c0.08-0.07,0.15-0.14,0.21-0.21c1.88,0.76,2.67,2.22,2.7,4.18
			L582.46,615.36z"/>
		<path class="st0" d="M468.69,580.61c-0.58,1.64-1.84,2.32-3.49,2.46c1.11-0.88,1.76-2.3,3.27-2.68
			C468.53,580.47,468.6,580.54,468.69,580.61z"/>
		<path class="st0" d="M726.02,744.75c1,0.04,2.01-0.16,2.83,0.8c0.38,0.44,1.17,0.51,2.16,0.9c-1.72,0.28-2.78-0.15-4.93-1.76
			L726.02,744.75z"/>
		<path class="st0" d="M352.99,336.11c-1.51,0.09-2.88-0.19-4.02-1.52c1.71-0.21,3.07,0.09,3.96,1.59L352.99,336.11z"/>
		<path class="st0" d="M354.09,336.74c1.75-0.21,2.79,1.06,4.06,1.86c-1.62-0.05-3.08-0.46-4.01-1.91L354.09,336.74z"/>
		<path class="st0" d="M724.93,744.12c-1.7,0.1-2.89-0.86-4.01-1.95c1.58,0.14,3.03,0.55,3.97,2L724.93,744.12z"/>
		<path class="st0" d="M744.66,351.7c0,0.51,0,1.02,0,1.58c-1.49-0.36-0.48-1.05-0.69-1.54C744.2,351.73,744.43,351.72,744.66,351.7
			z"/>
		<path class="st0" d="M333.88,729.78c0,0.67,0,1.16,0,1.75c-0.38-0.11-0.62-0.18-1.06-0.31
			C333.19,730.71,333.49,730.31,333.88,729.78z"/>
		<path class="st0" d="M496.63,465.43c-0.28-0.02-0.55-0.04-0.9-0.07c-0.07-0.22-0.14-0.46-0.23-0.78c0.3-0.06,0.54-0.11,0.94-0.19
			c0.04,0.42,0.08,0.76,0.11,1.11C496.56,465.51,496.63,465.43,496.63,465.43z"/>
		<path class="st0" d="M582.39,615.43c0.28,0.02,0.55,0.04,0.9,0.07c0.07,0.22,0.14,0.46,0.23,0.78c-0.3,0.06-0.54,0.11-0.94,0.19
			c-0.04-0.42-0.08-0.76-0.11-1.11L582.39,615.43z"/>
		<path class="st0" d="M464.66,583.97c-0.34,0.19-0.56,0.41-0.72,0.38c-0.17-0.03-0.42-0.34-0.39-0.49c0.03-0.17,0.31-0.39,0.5-0.4
			C464.2,583.46,464.37,583.72,464.66,583.97z"/>
		<ellipse class="st0" cx="745.22" cy="350.45" rx="0.15" ry="0.67"/>
		<path class="st0" d="M354.13,336.69c-0.47-0.01-1.08,0.25-1.14-0.58l-0.06,0.07c0.46,0.04,1.07-0.24,1.15,0.57L354.13,336.69z"/>
		<path class="st0" d="M726.09,744.68c-0.46-0.04-1.08,0.25-1.16-0.57l-0.05,0.05c0.47,0.02,1.08-0.24,1.14,0.58L726.09,744.68z"/>
		<path class="st0" d="M632.23,499.77c-0.15-0.09-0.31-0.17-0.1-0.06c-0.09-0.21-0.02-0.05,0.05,0.12L632.23,499.77z"/>
		<path class="st0" d="M446.3,580.43c0.16,0.22,0.32,0.44,0.48,0.66l0.06-0.05c-0.23-0.15-0.46-0.3-0.69-0.45L446.3,580.43z"/>
		<path class="st0" d="M632.72,500.44c-0.16-0.22-0.32-0.44-0.48-0.66c0,0-0.06,0.06-0.06,0.06c0.23,0.15,0.46,0.3,0.69,0.45
			C632.87,500.28,632.72,500.44,632.72,500.44z"/>
		<path class="st0" d="M446.78,581.08c0.16,0.09,0.31,0.18,0.1,0.06c0.09,0.22,0.02,0.05-0.05-0.11L446.78,581.08z"/>
		<path class="st0" d="M580.1,633.1c-0.16,0.22-0.31,0.45-0.47,0.67c0,0-0.12-0.12-0.12-0.12c0.22-0.16,0.43-0.33,0.65-0.49
			L580.1,633.1z"/>
		<path class="st0" d="M499.49,447.2c-0.13,0.16-0.26,0.31-0.38,0.47c-0.07-0.07-0.13-0.14-0.2-0.21c0.16-0.12,0.32-0.24,0.48-0.35
			L499.49,447.2z"/>
		<path class="st0" d="M615.08,496.98c0.08-0.16,0.16-0.32,0.07-0.14c0.18-0.1,0.02-0.01-0.14,0.07
			C615.01,496.91,615.08,496.98,615.08,496.98z"/>
		<path class="st0" d="M614.5,497.55c0.19-0.19,0.39-0.38,0.58-0.58l-0.07-0.07c-0.19,0.19-0.39,0.38-0.58,0.57
			C614.43,497.48,614.5,497.55,614.5,497.55z"/>
		<path class="st0" d="M580.16,633.16c0.09-0.16,0.17-0.31,0.06-0.11c0.21-0.09,0.04-0.02-0.12,0.05L580.16,633.16z"/>
	</g>
	<path class="st0" d="M133.52,540.44c0,54.66,10.85,106.84,30.53,154.47h-3.5c-20.02-49.03-30.16-100.98-30.16-154.47
		c0-55.23,10.81-108.82,32.16-159.25c13.17-31.16,29.99-60.29,50.24-87.07h4.19C164.64,362.48,133.52,447.89,133.52,540.44z"/>
	<path class="st0" d="M948.68,540.44c0,53.49-10.15,105.44-30.16,154.47h-3.5c19.67-47.64,30.53-99.81,30.53-154.47
		c0-92.55-31.11-177.96-83.45-246.32h4.19c20.25,26.78,37.06,55.91,50.24,87.07C937.87,431.62,948.68,485.21,948.68,540.44z"/>
</g>
<g>
	<g>
		<path class="st0" d="M392.09,787.45h8.1l17.11,40.2h-9.18l-3.65-8.95h-16.88l-3.65,8.95h-8.95L392.09,787.45z M401.33,810.94
			l-5.3-12.95l-5.3,12.95H401.33z"/>
		<path class="st0" d="M423.46,787.73h8.78v31.94h19.9v7.98h-28.69V787.73z"/>
		<path class="st0" d="M458.76,787.73h9.47l10.49,16.88l10.49-16.88h9.47v39.92h-8.72v-26.06l-11.24,17.05h-0.23l-11.12-16.88v25.89
			h-8.61V787.73z"/>
		<path class="st0" d="M521.94,787.45h8.1l17.11,40.2h-9.18l-3.65-8.95h-16.88l-3.65,8.95h-8.95L521.94,787.45z M531.18,810.94
			l-5.3-12.95l-5.3,12.95H531.18z"/>
		<path class="st0" d="M566.94,828.22c-3.04,0-6.03-0.52-8.95-1.57c-2.93-1.05-5.59-2.65-7.98-4.82l5.19-6.22
			c1.82,1.48,3.7,2.66,5.62,3.54c1.92,0.87,4.02,1.31,6.3,1.31c1.82,0,3.24-0.33,4.25-1c1.01-0.66,1.51-1.59,1.51-2.77v-0.11
			c0-0.57-0.1-1.07-0.31-1.51c-0.21-0.44-0.61-0.84-1.2-1.23c-0.59-0.38-1.41-0.76-2.45-1.14c-1.05-0.38-2.41-0.78-4.08-1.2
			c-2.02-0.49-3.84-1.05-5.48-1.65c-1.63-0.61-3.02-1.36-4.16-2.25c-1.14-0.89-2.02-2-2.65-3.34c-0.63-1.33-0.94-2.98-0.94-4.96
			v-0.11c0-1.83,0.34-3.47,1.03-4.93c0.68-1.46,1.64-2.73,2.88-3.79c1.24-1.06,2.71-1.88,4.42-2.45c1.71-0.57,3.59-0.85,5.65-0.85
			c2.93,0,5.62,0.44,8.07,1.31c2.45,0.88,4.7,2.13,6.76,3.76l-4.56,6.62c-1.79-1.22-3.54-2.18-5.25-2.88
			c-1.71-0.7-3.42-1.05-5.13-1.05c-1.71,0-2.99,0.33-3.85,1c-0.86,0.67-1.28,1.49-1.28,2.48v0.11c0,0.65,0.12,1.21,0.37,1.68
			c0.25,0.48,0.69,0.9,1.34,1.28c0.65,0.38,1.53,0.74,2.65,1.08c1.12,0.34,2.54,0.74,4.25,1.2c2.02,0.53,3.81,1.13,5.39,1.8
			c1.58,0.67,2.91,1.47,3.99,2.4c1.08,0.93,1.9,2.02,2.45,3.28c0.55,1.26,0.83,2.76,0.83,4.51v0.11c0,1.98-0.36,3.73-1.08,5.28
			c-0.72,1.54-1.73,2.83-3.02,3.88c-1.29,1.05-2.83,1.84-4.62,2.4C571.08,827.95,569.1,828.22,566.94,828.22z"/>
		<path class="st0" d="M589.24,787.73h18.53c4.6,0,8.08,1.18,10.43,3.53c1.83,1.82,2.74,4.08,2.74,6.77v0.11
			c0,1.14-0.14,2.14-0.43,3.02c-0.29,0.87-0.66,1.66-1.14,2.36c-0.48,0.7-1.03,1.32-1.65,1.85c-0.63,0.53-1.3,0.98-2.02,1.37
			c2.32,0.88,4.14,2.07,5.48,3.57c1.33,1.51,2,3.59,2,6.25v0.12c0,1.83-0.35,3.43-1.05,4.8c-0.7,1.37-1.71,2.51-3.02,3.43
			c-1.31,0.91-2.89,1.6-4.73,2.06c-1.84,0.46-3.89,0.68-6.13,0.68h-18.99V787.73z M612.22,799.51c0-1.32-0.49-2.33-1.48-3.03
			c-0.99-0.7-2.41-1.05-4.28-1.05h-8.67v8.38h8.1c1.94,0,3.48-0.33,4.62-0.99c1.14-0.66,1.71-1.73,1.71-3.2V799.51z M614.44,815.51
			c0-1.33-0.51-2.39-1.54-3.17c-1.03-0.78-2.68-1.17-4.96-1.17h-10.15v8.78h10.44c1.94,0,3.46-0.35,4.56-1.05
			c1.1-0.7,1.65-1.8,1.65-3.28V815.51z"/>
		<path class="st0" d="M630.41,787.73h30.11v7.81h-21.38v8.1h18.82v7.81h-18.82v8.38h21.67v7.81h-30.4V787.73z"/>
		<path class="st0" d="M668.62,787.73h8.78v17.45l16.08-17.45h10.78l-16.31,16.94l16.99,22.98h-10.55l-12.37-16.99l-4.62,4.79v12.2
			h-8.78V787.73z"/>
	</g>
</g>
</svg>
